<?xml version="1.0" encoding="UTF-8" standalone="no"?>
<svg
   xmlns:dc="http://purl.org/dc/elements/1.1/"
   xmlns:cc="http://creativecommons.org/ns#"
   xmlns:rdf="http://www.w3.org/1999/02/22-rdf-syntax-ns#"
   xmlns:svg="http://www.w3.org/2000/svg"
   xmlns="http://www.w3.org/2000/svg"
   viewBox="0 0 50 50.022762"
   height="50.022762"
   width="50"
   xml:space="preserve"
   id="svg2"
   version="1.1">
	 <path
       d="M24.997699 -1.4929199e-7c-13.804905345 0 -24.997698528 11.2517549001 -24.997698528 25.132467753 0 11.1036445929 7.162589577 20.5225344414 17.09690334 23.847302274900002 1.250805765 0.2298795393 1.7066208720000002 -0.5461567578 1.7066208720000002 -1.2126531402 0 -0.5955268602 -0.021486234 -2.1769129527 -0.033764082 -4.273599489 -6.953866161 1.5181306488 -8.421068997 -3.3695094888000003 -8.421068997 -3.3695094888000003 -1.137235671 -2.9035791474 -2.776328379 -3.6765298131 -2.776328379 -3.6765298131 -2.2698671490000004 -1.5582438570000001 0.171889872 -1.527387543 0.171889872 -1.527387543 2.509285185 0.1774238055 3.8291538450000004 2.5903875603 3.8291538450000004 2.5903875603 2.229964143 3.8400682773 5.851929303 2.730783789 7.276159670999999 2.0874296421 0.227140188 -1.6230421164000002 0.8717272079999999 -2.730783789 1.586911854 -3.3587097789 -5.551122027 -0.6340972527 -11.387704020000001 -2.7909536013 -11.387704020000001 -12.4212092007 0 -2.7431263146 0.974554185 -4.9863803424 2.573743887 -6.743647424700001 -0.257834808 -0.6356400684 -1.115749437 -3.1905428676 0.244022229 -6.6510784827 0 0 2.099512008 -0.6757532766 6.875594880000001 2.576502219 1.993615569 -0.5584992834 4.133030583 -0.8362061094000001 6.258633018000001 -0.8454630036 2.122532973 0.0092568942 4.261947987 0.2869637202 6.258633018000001 0.8454630036 4.77301341 -3.2522554956 6.867921225 -2.576502219 6.867921225 -2.576502219 1.3643758590000001 3.4605356151 0.5064612300000001 6.0154384143 0.248626422 6.6510784827 1.6022591640000001 1.7572670823 2.570674425 4.0005211101 2.570674425 6.743647424700001 0 9.6549406506 -5.845790379 11.7793978695 -11.415329178 12.401152596600001 0.897817635 0.7760362971 1.6974124860000002 2.3095951029000004 1.6974124860000002 4.6546749669 0 3.3587097789 -0.030694620000000002 6.0694369638 -0.030694620000000002 6.8933005476 0 0.6726676452 0.449676183 1.4548752051 1.7188987200000003 1.2095675088 9.926640108 -3.3309390963 17.083090761 -12.743657682 17.083090761 -23.8442166435C50.000001721000004 11.25175475080801 38.805673807000005 -1.4929199e-7 24.997699 -1.4929199e-7"
       style="fill:#555555;fill-opacity:1;fill-rule:evenodd;stroke:none"
       id="path198" /></svg>